<?xml version="1.0" encoding="UTF-8" standalone="no"?>
<!-- Created with Inkscape (http://www.inkscape.org/) -->

<svg
   version="1.1"
   id="svg449"
   width="880"
   height="880"
   viewBox="0 0 880 880"
   sodipodi:docname="bonfire-night-forest-vector.svg"
   inkscape:version="1.2 (dc2aedaf03, 2022-05-15)"
   xmlns:inkscape="http://www.inkscape.org/namespaces/inkscape"
   xmlns:sodipodi="http://sodipodi.sourceforge.net/DTD/sodipodi-0.dtd"
   xmlns="http://www.w3.org/2000/svg"
   xmlns:svg="http://www.w3.org/2000/svg">
  <defs
     id="defs453">
    <clipPath
       clipPathUnits="userSpaceOnUse"
       id="clipPath467">
      <path
         d="M 0,660 H 660 V 0 H 0 Z"
         id="path465" />
    </clipPath>
  </defs>
  <sodipodi:namedview
     id="namedview451"
     pagecolor="#ffffff"
     bordercolor="#000000"
     borderopacity="0.25"
     inkscape:showpageshadow="2"
     inkscape:pageopacity="0.0"
     inkscape:pagecheckerboard="0"
     inkscape:deskcolor="#d1d1d1"
     showgrid="false"
     inkscape:zoom="0.95113636"
     inkscape:cx="441.05137"
     inkscape:cy="440.52569"
     inkscape:window-width="1920"
     inkscape:window-height="1017"
     inkscape:window-x="-8"
     inkscape:window-y="-8"
     inkscape:window-maximized="1"
     inkscape:current-layer="g457">
    <inkscape:page
       x="0"
       y="0"
       id="page455"
       width="880"
       height="880" />
  </sodipodi:namedview>
  <g
     id="g457"
     inkscape:groupmode="layer"
     inkscape:label="Page 1"
     transform="matrix(1.3333333,0,0,-1.3333333,0,880)">
    <path
       d="M 0.129,0 H 660 V 660 H 0.129 Z"
       style="fill:#6d6f73;fill-opacity:1;fill-rule:nonzero;stroke:none"
       id="path459" />
    <g
       id="g461">
      <g
         id="g463"
         clip-path="url(#clipPath467)">
        <g
           id="g469"
           transform="translate(330.8906,323.1865)">
          <path
             d="m 0,0 h -1.931 l 0.966,-1.999 z M 1.261,32.592 3.459,28.037 8.501,17.603 15.742,32.592 Z M 4.984,49.52 H -6.917 L -0.965,37.2 Z m 296.212,4.931 3.029,6.268 10.374,21.485 h -7.874 l 2.566,-5.318 h -18.933 l 10.376,-21.482 z m 0,-39.198 0.536,1.108 5.314,11.006 h -11.702 z m -61.608,31.773 3.666,7.594 h -7.334 z m -79.16,-35.579 4.648,9.625 10.377,21.483 H 156.52 l 1.28,2.65 h -13.677 l 10.374,-21.482 z m 0,-39.198 2.154,4.464 7.883,16.322 h -18.931 l 1.277,2.649 h -3.704 l 7.884,-16.323 z m -76.23,49.71 4.437,-9.182 4.435,9.182 z m 2.115,25.213 h -14.29 l 7.145,-14.795 6.018,12.459 z M 49.826,34.971 55.719,47.172 H 43.934 Z m -9.467,-19.601 7.477,15.48 0.841,1.742 H 32.045 l 7.882,-16.324 z m 9.467,-19.597 0.908,1.877 h -1.816 z m 27.181,1.877 2.161,-4.472 2.16,4.472 z M -29.951,54.137 h -7.874 l 7.882,-16.321 5.52,-11.43 0.797,1.651 10.379,21.483 h -18.934 z m -32.027,-16.25 7.85,16.25 h -15.7 z m -9.466,-19.6 6.953,14.395 h -13.903 z m 9.466,-19.599 2.862,5.927 H -64.84 Z M -30.612,0 l 3.163,-6.544 3.026,-6.267 L -18.235,0 Z m -99.809,71.923 3.914,8.106 h -7.829 z m -9.466,-19.596 5.495,11.38 0.575,1.189 h -12.142 z m 0,-39.2 1.086,2.249 h -2.173 z m 34.668,17.38 5.39,-11.158 4.33,-8.967 0.394,0.818 10.376,21.482 h -2.608 l 1.051,-2.175 z m -57.84,-15.131 1.174,-2.43 h -18.931 l 7.882,-16.321 3.299,-6.832 4.474,9.262 7.883,16.321 z m -4.984,49.52 1.172,-2.429 h -18.933 l 10.376,-21.482 5.793,-11.996 6.967,14.425 10.378,21.482 z m -31.348,21.747 5.415,11.206 h -10.828 z m 0,-39.199 0.428,0.885 h -0.855 z m -78.817,42.229 5.182,10.724 7.882,16.321 h -7.195 l 1.973,-4.084 h -18.931 L -278.92,91.15 Z m 0,-39.197 2.69,5.562 3.417,7.075 h -12.209 z m 48.451,-51.668 4.325,-8.953 4.326,8.953 z m -1.171,18.869 h -7.941 l 2.898,-5.998 1.073,-2.226 z m -3.813,30.652 9.309,-19.276 1.427,2.955 7.883,16.321 z m -9.114,18.868 5.39,-11.159 3.567,-7.387 8.957,18.546 z m -63.001,-4.084 3.122,-6.461 3.118,6.461 z m -4.986,49.521 8.108,-16.786 8.107,16.786 z m 0.128,-33.305 h -2.973 l 0.368,-0.763 1.119,-2.315 z m 2.713,15.557 2.399,-4.971 0.596,1.235 1.805,3.736 z m 639.903,5.869 V 82.204 h -9.967 L 330.902,61.56 V 32.682 h -4.984 l 4.984,-10.323 v -39.198 -99.056 c -208.524,-0.211 -442.928,-2.598 -661.664,-2.841 v 308.058 l 0.407,0.84 11.05,-22.877 11.049,-22.877 h -18.931 l 10.374,-21.482 3.613,-7.479 9.688,20.061 11.049,22.879 11.049,-22.879 3.206,-6.637 7.674,15.884 10.374,21.484 h -18.929 l 11.047,22.877 11.048,22.877 11.051,-22.877 11.049,-22.877 h -18.931 l 10.374,-21.484 c 4.515,-9.344 9.028,-18.691 13.541,-28.037 h -18.931 l 7.882,-16.321 15.527,-32.144 3.919,8.113 10.378,21.483 h -18.932 l 11.049,22.877 11.048,22.878 11.049,-22.878 6.997,-14.484 0.956,1.979 11.048,-22.879 8.285,-17.155 9.461,19.585 11.048,22.877 9.239,-19.126 7.989,16.545 10.377,21.482 h -18.933 l 11.05,22.876 11.049,22.877 11.048,-22.877 11.049,-22.876 h -18.933 l 10.377,-21.482 c 4.514,-9.347 9.027,-18.692 13.542,-28.039 h -18.931 l 7.883,-16.322 6.821,-14.126 2.888,5.978 11.049,22.877 10.118,-20.951 11.926,24.689 10.374,21.484 h -18.931 l 11.049,22.875 11.048,22.879 11.051,-22.879 11.049,-22.875 h -18.933 l 10.376,-21.484 8.012,-16.592 3.291,6.815 11.049,22.878 11.049,-22.878 7.535,-15.599 1.851,3.831 10.374,21.483 H 1.793 L 12.844,104.989 23.893,127.865 34.94,104.989 45.991,82.112 H 27.059 L 37.435,60.629 40.359,54.571 50.328,75.21 60.706,96.691 H 41.773 L 52.822,119.567 63.871,142.444 74.919,119.567 85.97,96.691 H 67.037 L 77.413,75.21 88.635,51.975 l 7.6,15.737 11.048,-22.876 11.051,-22.877 H 99.401 L 109.777,0.477 c 15.53,-32.155 9.641,-32.51 23.027,-4.793 h -18.931 c 4.513,9.345 9.025,18.692 13.541,28.039 l 10.376,21.482 h -18.933 l 11.049,22.874 11.048,22.879 11.051,-22.879 8.423,-17.435 7.14,14.788 11.049,22.876 11.049,-22.876 11.05,-22.877 H 181.783 L 192.16,21.072 c 4.513,-9.344 9.026,-18.69 13.54,-28.037 h -18.93 l 7.879,-16.322 22.07,12.064 7.884,16.321 H 205.67 c 4.513,9.347 9.029,18.694 13.543,28.037 l 10.376,21.485 h -18.933 l 11.048,22.875 11.051,22.878 11.049,-22.878 5.248,-10.869 6.813,14.106 11.051,-22.876 3.959,-8.199 2.776,5.747 10.376,21.482 h -18.932 l 11.05,22.877 11.048,22.877 11.049,-22.877 2.954,-6.116 5.521,11.432 11.049,22.879 11.048,-22.879 z m -610.227,-87.164 1.117,-2.315 0.195,0.403 0.924,1.912 z"
             style="fill:#57595e;fill-opacity:1;fill-rule:evenodd;stroke:none"
             id="path471" />
        </g>
        <g
           id="g473"
           transform="translate(0.1309,244.5605)">
          <path
             d="m 0,0 128.663,-18.464 c 36.084,-5.177 67.488,-5.409 103.648,-0.767 l 61.516,7.897 c 42.274,5.427 79.12,4.312 120.989,-3.664 l 6.856,-1.307 c 39.341,-7.491 73.894,-8.869 113.704,-4.528 l 126.286,13.771 v -239.08 H 0 Z"
             style="fill:#42454a;fill-opacity:1;fill-rule:evenodd;stroke:none"
             id="path475" />
        </g>
        <g
           id="g477"
           transform="translate(321.9834,42.417)">
          <path
             d="m 0,0 c 88.968,0 161.529,29.078 161.529,64.729 0,35.654 -72.561,64.729 -161.529,64.729 -88.965,0 -161.527,-29.075 -161.527,-64.729 C -161.527,29.078 -88.965,0 0,0"
             style="fill:#57595e;fill-opacity:1;fill-rule:evenodd;stroke:none"
             id="path479" />
        </g>
        <g
           id="g481"
           transform="translate(229.8672,167.1689)">
          <path
             d="m 0,0 -0.736,-16.657 165.886,-79.218 42.071,21.433 z"
             style="fill:#ab7c4d;fill-opacity:1;fill-rule:evenodd;stroke:none"
             id="path483" />
        </g>
        <g
           id="g485"
           transform="translate(395.0176,71.2939)">
          <path
             d="M 0,0 36.029,12.422 42.07,21.433 4.86,10.217 Z"
             style="fill:#8f6134;fill-opacity:1;fill-rule:evenodd;stroke:none"
             id="path487" />
        </g>
        <g
           id="g489"
           transform="translate(399.8779,81.5107)">
          <path
             d="M 0,0 37.212,11.216 -113.961,96.505 -170.009,85.658 Z"
             style="fill:#bf8e5e;fill-opacity:1;fill-rule:evenodd;stroke:none"
             id="path491" />
        </g>
        <g
           id="g493"
           transform="translate(417.7344,86.8936)">
          <path
             d="m 0,0 -3.1,-0.935 -25.831,15.851 z m -140.895,89.366 -2.13,-0.412 57.099,-31.696 z m -11.641,-2.253 -3.296,-0.638 53.389,-27.702 z m -15.92,-3.082 30.039,-15.517 -33.709,14.806 z M 11.91,3.592 -38.645,26.67 8.304,2.502 Z"
             style="fill:#ab7c4d;fill-opacity:1;fill-rule:evenodd;stroke:none"
             id="path495" />
        </g>
        <g
           id="g497"
           transform="translate(417.7344,86.8936)">
          <path
             d="M 0,0 -3.283,-4.616 -3.1,-0.935 Z M 11.91,3.592 7.629,-1.952 8.304,2.502 Z"
             style="fill:#6e461f;fill-opacity:1;fill-rule:evenodd;stroke:none"
             id="path499" />
        </g>
        <g
           id="g501"
           transform="translate(358.2344,102.4932)">
          <path
             d="m 0,0 14.073,-7.091 0.522,-13.512 -47.13,22.507 z"
             style="fill:#9c6e40;fill-opacity:1;fill-rule:evenodd;stroke:none"
             id="path503" />
        </g>
        <g
           id="g505"
           transform="translate(586.748,604.8364)">
          <path
             d="M 0,0 1.45,-4.728 6.178,-6.179 1.45,-7.63 0,-12.358 l -1.451,4.728 -4.728,1.451 4.728,1.451 z m -23.537,-34.13 1.036,-3.375 3.377,-1.039 -3.377,-1.037 -1.036,-3.376 -1.038,3.376 -3.375,1.037 3.375,1.039 z m -11.769,-35.307 0.76,-2.475 2.476,-0.761 -2.476,-0.762 -0.76,-2.475 -0.762,2.475 -2.475,0.762 2.475,0.761 z m -25.892,-35.895 0.346,-1.124 1.125,-0.347 -1.125,-0.344 -0.346,-1.127 -0.345,1.127 -1.126,0.344 1.126,0.347 z m -68.849,33.542 0.763,-2.476 2.474,-0.76 -2.474,-0.762 -0.763,-2.476 -0.761,2.476 -2.474,0.762 2.474,0.76 z m 14.123,67.082 0.622,-2.026 2.028,-0.621 -2.028,-0.623 -0.622,-2.025 -0.621,2.025 -2.026,0.623 2.026,0.621 z m 15.299,-18.83 0.763,-2.475 2.474,-0.762 -2.474,-0.76 -0.763,-2.476 -0.761,2.476 -2.474,0.76 2.474,0.762 z m 15.89,-71.202 0.62,-2.026 2.026,-0.622 -2.026,-0.622 -0.62,-2.025 -0.623,2.025 -2.027,0.622 2.027,0.622 z m 22.359,-60.609 0.484,-1.576 1.578,-0.484 -1.578,-0.484 -0.484,-1.576 -0.484,1.576 -1.575,0.484 1.575,0.484 z m 77.969,62.374 1.522,-4.95 4.952,-1.522 -4.952,-1.522 -1.522,-4.951 -1.521,4.951 -4.952,1.522 4.952,1.522 z m -240.084,-8.826 0.554,-1.801 1.8,-0.552 -1.8,-0.554 -0.554,-1.801 -0.554,1.801 -1.8,0.554 1.8,0.552 z m 28.244,80.616 0.278,-0.899 0.901,-0.277 -0.901,-0.276 -0.278,-0.901 -0.274,0.901 -0.902,0.276 0.902,0.277 z m -2.059,-42.368 1.452,-4.726 4.727,-1.452 -4.727,-1.451 -1.452,-4.728 -1.45,4.728 -4.727,1.451 4.727,1.452 z m 27.363,-49.428 1.107,-3.602 3.602,-1.106 -3.602,-1.107 -1.107,-3.601 -1.107,3.601 -3.601,1.107 3.601,1.106 z m 53.843,-30.6 1.314,-4.276 4.275,-1.314 -4.275,-1.314 -1.314,-4.276 -1.314,4.276 -4.277,1.314 4.277,1.314 z m -158.586,61.199 0.553,-1.801 1.801,-0.553 -1.801,-0.554 -0.553,-1.8 -0.552,1.8 -1.801,0.554 1.801,0.553 z m -6.178,62.963 0.898,-2.926 2.927,-0.899 -2.927,-0.898 -0.898,-2.927 -0.899,2.927 -2.926,0.898 2.926,0.899 z m 34.718,12.946 0.761,-2.476 2.475,-0.76 -2.475,-0.762 -0.761,-2.475 -0.762,2.475 -2.475,0.762 2.475,0.76 z m 1.176,-55.314 0.345,-1.126 1.127,-0.344 -1.127,-0.347 -0.345,-1.125 -0.344,1.125 -1.126,0.347 1.126,0.344 z m -95.033,27.069 0.415,-1.35 1.351,-0.415 -1.351,-0.414 -0.415,-1.352 -0.414,1.352 -1.35,0.414 1.35,0.415 z m 1.471,52.96 0.76,-2.476 2.477,-0.761 -2.477,-0.761 -0.76,-2.475 -0.761,2.475 -2.474,0.761 2.474,0.761 z m 44.721,18.83 1.038,-3.378 3.375,-1.035 -3.375,-1.039 -1.038,-3.375 -1.034,3.375 -3.38,1.039 3.38,1.035 z m 102.389,0.588 2.422,-7.878 7.876,-2.42 -7.876,-2.42 -2.422,-7.878 -2.419,7.878 -7.877,2.42 7.877,2.42 z m 111.805,-3.531 1.038,-3.376 3.375,-1.037 -3.375,-1.038 -1.038,-3.375 -1.036,3.375 -3.377,1.038 3.377,1.037 z m -323.349,-73.555 0.276,-0.9 0.9,-0.277 -0.9,-0.276 -0.276,-0.901 -0.278,0.901 -0.9,0.276 0.9,0.277 z M -436.038,0 l 0.625,-2.026 2.025,-0.622 -2.025,-0.622 -0.625,-2.026 -0.62,2.026 -2.027,0.622 2.027,0.622 z m -80.027,42.956 0.76,-2.476 2.477,-0.76 -2.477,-0.762 -0.76,-2.475 -0.761,2.475 -2.475,0.762 2.475,0.76 z m -26.48,-27.657 1.174,-3.827 3.827,-1.174 -3.827,-1.175 -1.174,-3.828 -1.174,3.828 -3.828,1.175 3.828,1.174 z m -15.888,-62.374 0.345,-1.127 1.127,-0.344 -1.127,-0.346 -0.345,-1.126 -0.346,1.126 -1.125,0.346 1.125,0.344 z m 56.786,24.714 0.829,-2.701 2.701,-0.83 -2.701,-0.829 -0.829,-2.701 -0.831,2.701 -2.702,0.829 2.702,0.83 z m 17.063,-22.361 0.554,-1.801 1.8,-0.552 -1.8,-0.554 -0.554,-1.801 -0.552,1.801 -1.8,0.554 1.8,0.552 z m 21.774,-38.249 1.381,-4.501 4.503,-1.383 -4.503,-1.383 -1.381,-4.502 -1.383,4.502 -4.502,1.383 4.502,1.383 z m 27.067,-30.01 1.66,-5.403 5.401,-1.659 -5.401,-1.66 -1.66,-5.401 -1.658,5.401 -5.402,1.66 5.402,1.659 z m 40.897,15.299 0.762,-2.476 2.475,-0.76 -2.475,-0.762 -0.762,-2.474 -0.761,2.474 -2.474,0.762 2.474,0.76 z m 34.425,22.361 1.105,-3.601 3.602,-1.107 -3.602,-1.106 -1.105,-3.601 -1.107,3.601 -3.601,1.106 3.601,1.107 z m 35.895,-19.419 0.553,-1.801 1.801,-0.552 -1.801,-0.554 -0.553,-1.8 -0.554,1.8 -1.8,0.554 1.8,0.552 z m 4.118,-35.306 1.247,-4.053 4.049,-1.243 -4.049,-1.246 -1.247,-4.05 -1.243,4.05 -4.053,1.246 4.053,1.243 z m -25.009,-44.134 1.452,-4.727 4.728,-1.451 -4.728,-1.452 -1.452,-4.727 -1.45,4.727 -4.727,1.452 4.727,1.451 z m -62.079,196.541 0.829,-2.701 2.701,-0.83 -2.701,-0.83 -0.829,-2.701 -0.832,2.701 -2.701,0.83 2.701,0.83 z m 18.829,-25.892 0.416,-1.351 1.35,-0.414 -1.35,-0.414 -0.416,-1.352 -0.414,1.352 -1.352,0.414 1.352,0.414 z m -87.383,37.072 0.484,-1.575 1.575,-0.485 -1.575,-0.484 -0.484,-1.575 -0.485,1.575 -1.574,0.484 1.574,0.485 z m 503.124,-47.37 0.414,-1.351 1.351,-0.414 -1.351,-0.414 -0.414,-1.351 -0.416,1.351 -1.349,0.414 1.349,0.414 z m 11.033,-39.72 1.072,-3.489 3.489,-1.071 -3.489,-1.073 -1.072,-3.487 -1.072,3.487 -3.488,1.073 3.488,1.071 z m 16.623,-40.308 0.762,-2.476 2.476,-0.76 -2.476,-0.762 -0.762,-2.475 -0.76,2.475 -2.475,0.762 2.475,0.76 z m -4.56,-37.369 0.795,-2.587 2.59,-0.793 -2.59,-0.797 -0.795,-2.587 -0.795,2.587 -2.588,0.797 2.588,0.793 z m -82.823,-3.234 0.414,-1.351 1.352,-0.414 -1.352,-0.416 -0.414,-1.349 -0.415,1.349 -1.351,0.416 1.351,0.414 z m 30.598,77.675 1.108,-3.601 3.6,-1.106 -3.6,-1.107 -1.108,-3.601 -1.105,3.601 -3.602,1.107 3.602,1.106 z m 54.431,96.799 1.452,-4.727 4.728,-1.452 -4.728,-1.451 -1.452,-4.728 -1.452,4.728 -4.728,1.451 4.728,1.452 z m -627.134,-55.02 0.312,-1.013 1.012,-0.311 -1.012,-0.312 -0.312,-1.011 -0.311,1.011 -1.013,0.312 1.013,0.311 z m 10.593,-46.192 0.796,-2.59 2.586,-0.794 -2.586,-0.796 -0.796,-2.588 -0.795,2.588 -2.59,0.796 2.59,0.794 z m 20.741,-27.068 0.277,-0.901 0.901,-0.276 -0.901,-0.277 -0.277,-0.901 -0.276,0.901 -0.9,0.277 0.9,0.276 z m 5.003,71.495 0.9,-2.926 2.923,-0.898 -2.923,-0.899 -0.9,-2.926 -0.9,2.926 -2.925,0.899 2.925,0.898 z m 525.77,45.016 0.416,-1.351 1.348,-0.414 -1.348,-0.417 -0.416,-1.349 -0.414,1.349 -1.353,0.417 1.353,0.414 z"
             style="fill:#dfe2e8;fill-opacity:1;fill-rule:evenodd;stroke:none"
             id="path507" />
        </g>
        <g
           id="g509"
           transform="translate(446.0566,137.0244)">
          <path
             d="m 0,0 -5.06,-17.037 -209.935,-44.376 -38.614,30.82 z"
             style="fill:#8f6134;fill-opacity:1;fill-rule:evenodd;stroke:none"
             id="path511" />
        </g>
        <g
           id="g513"
           transform="translate(231.062,75.6113)">
          <path
             d="M 0,0 -35.161,20.383 -38.614,30.82 -1.733,11.403 Z"
             style="fill:#ab7c4d;fill-opacity:1;fill-rule:evenodd;stroke:none"
             id="path515" />
        </g>
        <g
           id="g517"
           transform="translate(229.3286,87.0146)">
          <path
             d="M 0,0 -36.883,19.417 159.046,73.128 216.728,50.01 Z"
             style="fill:#bf8e5e;fill-opacity:1;fill-rule:evenodd;stroke:none"
             id="path519" />
        </g>
        <g
           id="g521"
           transform="translate(211.6313,96.3311)">
          <path
             d="M 0,0 3.072,-1.616 37,8.855 Z m 186.085,60.066 2.194,-0.877 -73.824,-19.762 z m 11.978,-4.799 3.395,-1.359 -68.346,-16.521 z M 214.451,48.7 176.02,39.475 218.226,47.184 Z M -11.807,6.216 51.799,18.661 -8.231,4.333 Z"
             style="fill:#ab7c4d;fill-opacity:1;fill-rule:evenodd;stroke:none"
             id="path523" />
        </g>
        <g
           id="g525"
           transform="translate(211.6313,96.3311)">
          <path
             d="m 0,0 1.975,-5.386 1.097,3.77 z m -11.807,6.216 2.748,-6.541 0.828,4.658 z"
             style="fill:#8f6134;fill-opacity:1;fill-rule:evenodd;stroke:none"
             id="path527" />
        </g>
        <g
           id="g529"
           transform="translate(372.3076,95.4023)">
          <path
             d="M 0,0 44.892,8.545 30.698,16.554 -14.073,7.091 Z"
             style="fill:#ab7c4d;fill-opacity:1;fill-rule:evenodd;stroke:none"
             id="path531" />
        </g>
        <g
           id="g533"
           transform="translate(392.8691,99.3154)">
          <path
             d="M 0,0 -4.065,2.496 0.562,0.107 Z m 12.299,2.343 -16.106,7.353 -0.8,-0.17 14.754,-7.593 z"
             style="fill:#8f6134;fill-opacity:1;fill-rule:evenodd;stroke:none"
             id="path535" />
        </g>
        <g
           id="g537"
           transform="translate(279.6089,267.4971)">
          <path
             d="M 0,0 C -55.902,4.119 -18.83,48.254 -20.301,70.907 7.355,58.255 -13.24,23.538 0,0"
             style="fill:#f5ac00;fill-opacity:1;fill-rule:evenodd;stroke:none"
             id="path539" />
        </g>
        <g
           id="g541"
           transform="translate(323.8687,142.459)">
          <path
             d="m 0,0 c -112.544,1.264 -71.33,87.763 -115.647,125.918 20.395,4.807 52.824,-5.835 63.997,-21.772 22.726,43.741 38.433,87.481 3.446,133.576 54.261,-7.475 97.842,-60.609 85.165,-108.862 21.915,20.008 43.015,28.834 74.59,17.066 C 71.509,98.354 112.542,-1.269 0,0"
             style="fill:#f5ac00;fill-opacity:1;fill-rule:evenodd;stroke:none"
             id="path543" />
        </g>
        <g
           id="g545"
           transform="translate(267.6943,385.7534)">
          <path
             d="M 0,0 C -22.501,1.657 -18.316,21.187 -8.171,28.541 -9.983,17.859 -5.329,9.474 0,0"
             style="fill:#f5ac00;fill-opacity:1;fill-rule:evenodd;stroke:none"
             id="path547" />
        </g>
        <g
           id="g549"
           transform="translate(367.5645,285.8477)">
          <path
             d="M 0,0 C 20.86,10.715 10.787,32.205 -1.148,36.962 3.912,25.024 2.105,13.287 0,0"
             style="fill:#f5ac00;fill-opacity:1;fill-rule:evenodd;stroke:none"
             id="path551" />
        </g>
        <g
           id="g553"
           transform="translate(256.4658,340.2783)">
          <path
             d="M 0,0 C -11.597,5.958 -5.996,17.904 0.638,20.549 -2.172,13.911 -1.17,7.387 0,0"
             style="fill:#f5ac00;fill-opacity:1;fill-rule:evenodd;stroke:none"
             id="path555" />
        </g>
        <g
           id="g557"
           transform="translate(385.1152,301.0459)">
          <path
             d="M 0,0 C 20.08,3.213 27.145,26.75 -2.012,32.39 6.854,21.927 3.688,11.644 0,0"
             style="fill:#f5ac00;fill-opacity:1;fill-rule:evenodd;stroke:none"
             id="path559" />
        </g>
        <g
           id="g561"
           transform="translate(322.9067,146.4375)">
          <path
             d="M 0,0 C -59.741,0.67 -68.169,46.882 -76.099,72.433 -64.384,59.007 -45.995,57.082 -33,59.185 c 14.711,23.807 31.914,55.69 23.3,96.43 23.212,-29.27 36.409,-47.824 35.565,-81.972 13.399,-1.736 29.148,9.325 47.472,33.242 C 70.326,71.628 59.741,-0.671 0,0"
             style="fill:#ffdd30;fill-opacity:1;fill-rule:evenodd;stroke:none"
             id="path563" />
        </g>
        <g
           id="g565"
           transform="translate(322.0796,152.9766)">
          <path
             d="m 0,0 c -23.948,0.269 -27.327,18.793 -30.506,29.037 4.696,-5.383 12.069,-6.152 17.278,-5.311 5.896,9.545 12.793,22.325 9.341,38.656 9.304,-11.733 14.594,-19.17 14.258,-32.861 5.371,-0.695 11.684,3.74 19.03,13.327 C 28.192,28.714 23.952,-0.27 0,0"
             style="fill:#fff07f;fill-opacity:1;fill-rule:evenodd;stroke:none"
             id="path567" />
        </g>
        <g
           id="g569"
           transform="translate(320.0679,466.3706)">
          <path
             d="M 0,0 C -22.503,1.657 -18.32,21.187 -8.171,28.541 -9.987,17.859 -5.331,9.474 0,0"
             style="fill:#f5ac00;fill-opacity:1;fill-rule:evenodd;stroke:none"
             id="path571" />
        </g>
        <g
           id="g573"
           transform="translate(288.7188,418.2002)">
          <path
             d="M 0,0 C 20.858,10.717 10.786,32.206 -1.149,36.961 3.912,25.024 2.105,13.287 0,0"
             style="fill:#f5ac00;fill-opacity:1;fill-rule:evenodd;stroke:none"
             id="path575" />
        </g>
        <g
           id="g577"
           transform="translate(280.0034,508.5737)">
          <path
             d="M 0,0 C -11.597,5.957 -5.996,17.904 0.638,20.549 -2.172,13.911 -1.17,7.386 0,0"
             style="fill:#f5ac00;fill-opacity:1;fill-rule:evenodd;stroke:none"
             id="path579" />
        </g>
        <g
           id="g581"
           transform="translate(318.9072,391.5347)">
          <path
             d="M 0,0 C -11.596,5.956 -5.997,17.904 0.636,20.548 -2.174,13.91 -1.172,7.387 0,0"
             style="fill:#f5ac00;fill-opacity:1;fill-rule:evenodd;stroke:none"
             id="path583" />
        </g>
      </g>
    </g>
  </g>
</svg>
